<?xml version="1.0" ?><svg enable-background="new 0 0 512 512" id="Layer_1" version="1.1" viewBox="0 0 512 512" xml:space="preserve" xmlns="http://www.w3.org/2000/svg" xmlns:xlink="http://www.w3.org/1999/xlink"><g><g><linearGradient gradientUnits="userSpaceOnUse" id="SVGID_1_" x1="-0.0000027" x2="512" y1="256" y2="256"><stop offset="0" style="stop-color:#00AEEE"/><stop offset="1" style="stop-color:#0095DA"/></linearGradient><circle cx="256" cy="256" fill="url(#SVGID_1_)" r="256"/><linearGradient gradientUnits="userSpaceOnUse" id="SVGID_2_" x1="42.6666641" x2="469.3333435" y1="256.0005188" y2="256.0005188"><stop offset="0" style="stop-color:#0095DA"/><stop offset="1" style="stop-color:#00AEEE"/></linearGradient><path d="M256,469.3338623c-117.631012,0-213.3333435-95.7023926-213.3333435-213.3333435    c0-117.6314545,95.7023239-213.333313,213.3333435-213.333313c117.6362,0,213.3333435,95.7018661,213.3333435,213.333313    C469.3333435,373.6314697,373.6362,469.3338623,256,469.3338623z" fill="url(#SVGID_2_)"/></g><g><polygon opacity="0.3" points="259.8351135,176.3594666 228.9999237,144 144,144 144,210.4426727 384,210.4426727     384,176.3594666   "/><polygon opacity="0.3" points="144,301.7520142 144,310.2373352 249.5481873,310.2373352 218.9935303,277.2832031     226.3279266,270.4863892 267.8169861,315.2373352 226.3279266,359.9882813 218.9935303,353.1919861 249.5481873,320.2373352     144,320.2373352 144,384 264,384 384,384 384,301.7520142 384,220.4426727 144,220.4426727   "/></g><g><polygon fill="#FFFFFF" points="251.8351288,168.3594666 220.9999237,136 136,136 136,202.4426727 376,202.4426727     376,168.3594666   "/><polygon fill="#FFFFFF" points="136,293.7520142 136,302.2373352 241.5481873,302.2373352 210.9935303,269.2832031     218.3279266,262.4863892 259.8169861,307.2373352 218.3279266,351.9882813 210.9935303,345.1919861 241.5481873,312.2373352     136,312.2373352 136,376 256,376 376,376 376,293.7520142 376,212.4426727 136,212.4426727   "/></g></g></svg>